<?xml version="1.0" encoding="utf-8"?>
<!-- Generator: Adobe Illustrator 22.1.0, SVG Export Plug-In . SVG Version: 6.00 Build 0)  -->
<svg version="1.1" id="Layer_1" xmlns="http://www.w3.org/2000/svg" xmlns:xlink="http://www.w3.org/1999/xlink" x="0px" y="0px"
	 viewBox="0 0 32 32" style="enable-background:new 0 0 32 32;" xml:space="preserve">
<style type="text/css">
	.st0{fill:#19A59C;}
	.st1{fill:#FFFFFF;}
</style>
<g>
	<ellipse transform="matrix(0.3827 -0.9239 0.9239 0.3827 -4.905 24.6592)" class="st0" cx="16" cy="16" rx="16" ry="16"/>
	<g>
		<path class="st1" d="M23.8,18.9c-1.3-0.6-2.4-0.9-4.2-1.3c-0.1,0-0.2,0-0.3,0c0,0-1,0-1.4,0.6l-0.8,1.3c-0.1,0-0.3,0-0.5-0.1
			c-0.7-0.5-1.4-1.1-2.1-1.8c-0.7-0.7-1.3-1.4-1.8-2.1c-0.1-0.2-0.2-0.4-0.2-0.5l1.3-0.8c0.5-0.3,0.7-1.3,0.6-1.7
			c-0.4-1.4-0.9-2.9-1.3-4.1c-0.2-0.6-1-0.8-1.6-0.8c-0.2,0-0.3,0-0.5,0.1C9.9,8,8.9,8.7,7.9,9.6c-0.3,0.3-0.5,0.5-0.7,0.8l-0.1,0.1
			c-0.1,0.1-0.1,0.1-0.1,0.2l0,0.1c-0.1,3.5,1.5,7,4.2,9.8l0.1,0.1c2.7,2.7,6.2,4.3,9.6,4.3c0,0,0,0,0,0l0.4,0c0.1,0,0.2,0,0.2-0.1
			l0.1-0.1c0.3-0.2,0.6-0.5,0.8-0.7c0.9-0.9,1.6-2,2.1-3.2C24.8,20.2,24.4,19.1,23.8,18.9z M20.9,23.5c-3,0-6-1.4-8.5-3.9
			c-2.4-2.4-3.8-5.5-3.8-8.5C8.7,11,8.9,10.8,9,10.7c0.8-0.8,1.6-1.3,2.6-1.7c0.1,0,0.1,0,0.2,0c0.4,1.1,0.9,2.5,1.2,3.7
			c0,0,0,0.1,0,0.2l-1.2,0.8c-0.3,0.2-0.6,0.6-0.7,1c-0.1,0.5,0,1.1,0.4,1.7c0.6,0.8,1.2,1.5,1.9,2.3c0.7,0.7,1.5,1.4,2.3,1.9
			c0.5,0.4,1.1,0.5,1.7,0.4c0.4-0.1,0.8-0.3,1-0.6l0.7-1.2c0.1,0,0.1,0,0.2,0c1.6,0.4,2.5,0.7,3.7,1.2c0,0.1,0.1,0.2,0.1,0.2
			c-0.4,1-1,1.9-1.7,2.7C21.2,23.2,21.1,23.3,20.9,23.5z"/>
		<path class="st1" d="M16.1,7c-0.4,0-0.8,0.3-0.8,0.8c0,0.4,0.3,0.8,0.8,0.8c4,0,7.3,3.3,7.3,7.3c0,0.4,0.3,0.8,0.8,0.8
			s0.8-0.3,0.8-0.8C25,11,21,7,16.1,7z M24.2,16.2L24.2,16.2L24.2,16.2L24.2,16.2z"/>
		<path class="st1" d="M16.1,10.9c2.7,0,4.9,2.2,4.9,4.9c0,0.4,0.3,0.8,0.8,0.8s0.8-0.3,0.8-0.8c0-3.6-2.9-6.5-6.5-6.5
			c-0.4,0-0.8,0.3-0.8,0.8C15.4,10.5,15.7,10.9,16.1,10.9z M21.8,16.2L21.8,16.2L21.8,16.2L21.8,16.2z"/>
		<path class="st1" d="M16.1,13.4c1.3,0,2.4,1.1,2.4,2.4c0,0.4,0.3,0.8,0.8,0.8s0.8-0.3,0.8-0.8c0-2.2-1.8-4-4-4
			c-0.4,0-0.8,0.3-0.8,0.8S15.7,13.4,16.1,13.4z M19.3,16.2L19.3,16.2L19.3,16.2L19.3,16.2z"/>
	</g>
</g>
</svg>
