<?xml version="1.0" encoding="utf-8"?>
<!-- Generator: Adobe Illustrator 22.1.0, SVG Export Plug-In . SVG Version: 6.00 Build 0)  -->
<svg version="1.1" id="Layer_1" xmlns="http://www.w3.org/2000/svg" xmlns:xlink="http://www.w3.org/1999/xlink" x="0px" y="0px"
	 viewBox="0 0 32 32" style="enable-background:new 0 0 32 32;" xml:space="preserve">
<style type="text/css">
	.st0{fill:#DA4482;}
	.st1{fill:#FFFFFF;}
</style>
<g>
	<ellipse transform="matrix(0.3827 -0.9239 0.9239 0.3827 -4.905 24.6592)" class="st0" cx="16" cy="16" rx="16" ry="16"/>
	<g>
		<path class="st1" d="M16,8.6c2.4,0,2.7,0,3.6,0.1c0.9,0,1.4,0.2,1.7,0.3c0.4,0.2,0.7,0.4,1,0.7c0.3,0.3,0.5,0.6,0.7,1
			c0.1,0.3,0.3,0.8,0.3,1.7c0,0.9,0.1,1.2,0.1,3.6s0,2.7-0.1,3.6c0,0.9-0.2,1.4-0.3,1.7c-0.2,0.4-0.4,0.7-0.7,1
			c-0.3,0.3-0.6,0.5-1,0.7c-0.3,0.1-0.8,0.3-1.7,0.3c-0.9,0-1.2,0.1-3.6,0.1s-2.7,0-3.6-0.1c-0.9,0-1.4-0.2-1.7-0.3
			c-0.4-0.2-0.7-0.4-1-0.7c-0.3-0.3-0.5-0.6-0.7-1c-0.1-0.3-0.3-0.8-0.3-1.7c0-0.9-0.1-1.2-0.1-3.6s0-2.7,0.1-3.6
			c0-0.9,0.2-1.4,0.3-1.7c0.2-0.4,0.4-0.7,0.7-1c0.3-0.3,0.6-0.5,1-0.7c0.3-0.1,0.8-0.3,1.7-0.3C13.3,8.6,13.6,8.6,16,8.6 M16,7
			c-2.4,0-2.8,0-3.7,0.1c-1,0-1.6,0.2-2.2,0.4C9.5,7.7,9,8,8.5,8.5c-0.5,0.5-0.8,1-1,1.6c-0.2,0.6-0.4,1.2-0.4,2.2
			C7,13.2,7,13.6,7,16c0,2.4,0,2.8,0.1,3.7c0,1,0.2,1.6,0.4,2.2c0.2,0.6,0.5,1.1,1,1.6c0.5,0.5,1,0.8,1.6,1c0.6,0.2,1.2,0.4,2.2,0.4
			c1,0,1.3,0.1,3.7,0.1s2.8,0,3.7-0.1c1,0,1.6-0.2,2.2-0.4c0.6-0.2,1.1-0.5,1.6-1s0.8-1,1-1.6c0.2-0.6,0.4-1.2,0.4-2.2
			c0-1,0.1-1.3,0.1-3.7c0-2.4,0-2.8-0.1-3.7c0-1-0.2-1.6-0.4-2.2c-0.2-0.6-0.5-1.1-1-1.6s-1-0.8-1.6-1c-0.6-0.2-1.2-0.4-2.2-0.4
			C18.8,7,18.4,7,16,7z M16,11.4c-2.6,0-4.6,2.1-4.6,4.6c0,2.6,2.1,4.6,4.6,4.6s4.6-2.1,4.6-4.6C20.6,13.4,18.6,11.4,16,11.4z
			 M16,19c-1.7,0-3-1.3-3-3c0-1.7,1.3-3,3-3s3,1.3,3,3C19,17.7,17.7,19,16,19z M21.9,11.2c0,0.6-0.5,1.1-1.1,1.1
			c-0.6,0-1.1-0.5-1.1-1.1c0-0.6,0.5-1.1,1.1-1.1C21.4,10.1,21.9,10.6,21.9,11.2z"/>
	</g>
</g>
</svg>
